<?xml version="1.0" ?><svg xmlns="http://www.w3.org/2000/svg" xmlns:svg="http://www.w3.org/2000/svg" xmlns:rdf="http://www.w3.org/1999/02/22-rdf-syntax-ns#" xmlns:cc="http://creativecommons.org/ns#" xmlns:dc="http://purl.org/dc/elements/1.1/" id="svg4306" width="22" height="22" version="1.1" style="enable-background:new">
  <metadata id="metadata28">
    <rdf:RDF>
      <cc:Work rdf:about="">
        <dc:format>image/svg+xml</dc:format>
        <dc:type rdf:resource="http://purl.org/dc/dcmitype/StillImage"/>
      </cc:Work>
    </rdf:RDF>
  </metadata>
  <defs id="defs26"/>
  
  <g id="active-center" transform="translate(-1,-1)" style="enable-background:new">
    <rect y="1" x="1" height="22" width="22" id="rect861" style="opacity:0.003;fill:#000000;fill-opacity:1;stroke-width:1.02253"/>
    <path d="m 12.006716,6.000005 c -0.3604,0 -0.72092,0.0474 -1.17549,0.142743 -0.64646,0.135596 -1.5346,0.484576 -1.97372,0.775172 -0.43912,0.290595 -0.94828,0.842394 -1.13142,1.226446 -0.18314,0.384051 -0.27615,0.846342 -0.20663,1.027496 0.0695,0.181155 0.30234,0.329558 0.51719,0.329558 0.26264,0 0.45326,-0.219332 0.58228,-0.669227 0.10979,-0.382805 0.47482,-0.859707 0.85281,-1.114435 0.36339,-0.244889 1.08223,-0.50823 1.59766,-0.585525 0.51543,-0.07729 1.35921,-0.07729 1.87464,0 0.51544,0.0773 1.23747,0.342299 1.60453,0.588759 0.48607,0.326365 0.68507,0.633076 0.73312,1.128994 0.0367,0.379018 -0.0796,0.902902 -0.26243,1.181964 -0.18067,0.275737 -0.7693,0.725718 -1.30813,1.000001 -0.53883,0.274283 -1.18256,0.717558 -1.43065,0.985038 -0.24809,0.267478 -0.56234,0.929409 -0.69794,1.470683 -0.19398,0.774311 -0.19182,1.050195 0.0105,1.293975 0.20663,0.284675 0.54412,0.284675 0.78649,0.06146 0.13665,-0.136645 0.24828,-0.535132 0.24828,-0.885565 0,-0.350434 0.14638,-0.846319 0.32511,-1.101495 0.17874,-0.255174 0.77206,-0.690268 1.31865,-0.967247 0.54659,-0.276978 1.23515,-0.790565 1.53012,-1.141123 0.29498,-0.350562 0.59486,-0.949416 0.6664,-1.330774 0.0857,-0.456889 0.0159,-0.914058 -0.20461,-1.340477 -0.18406,-0.355928 -0.68837,-0.881035 -1.1205,-1.167004 C 14.710846,6.623454 13.828656,6.278339 13.182196,6.142743 12.727626,6.047393 12.367106,6 12.006706,6 Z m -0.41407,11.343711 c -0.1147,0 -0.20704,0.09234 -0.20704,0.207036 v 1.242216 c 0,0.114698 0.0923,0.207036 0.20704,0.207036 h 1.24222 c 0.11469,0 0.20703,-0.09234 0.20703,-0.207036 v -1.242216 c 0,-0.114697 -0.0923,-0.207036 -0.20703,-0.207036 z" style="fill:#eff0f1" id="rect45068-9-1-2"/>
  </g>
  <g id="hover-center" style="enable-background:new">
    <rect style="opacity:0.003;fill:#000000;fill-opacity:1;stroke-width:1.02253" id="rect861-6" width="22" height="22" x="22" y="0"/>
    <path d="M 32.990234 2 A 9 9 0 0 0 24 11 A 9 9 0 0 0 33 20 A 9 9 0 0 0 42 11 A 9 9 0 0 0 33 2 A 9 9 0 0 0 32.990234 2 z M 33.005859 5 C 33.366259 5 33.727071 5.0472281 34.181641 5.1425781 C 34.828101 5.2781741 35.710448 5.6241883 36.142578 5.9101562 C 36.574708 6.1961253 37.079612 6.7202439 37.263672 7.0761719 C 37.484182 7.5025909 37.55445 7.9591266 37.46875 8.4160156 C 37.39721 8.7973736 37.095761 9.3974849 36.800781 9.7480469 C 36.505811 10.098605 35.818074 10.611694 35.271484 10.888672 C 34.724894 11.165651 34.131865 11.600295 33.953125 11.855469 C 33.774395 12.110645 33.626953 12.606597 33.626953 12.957031 C 33.626953 13.307464 33.515556 13.707105 33.378906 13.84375 C 33.136536 14.066965 32.80038 14.065925 32.59375 13.78125 C 32.39143 13.53747 32.388051 13.262592 32.582031 12.488281 C 32.717631 11.947007 33.03316 11.285056 33.28125 11.017578 C 33.52934 10.750098 34.172108 10.305533 34.710938 10.03125 C 35.249767 9.756967 35.838861 9.306987 36.019531 9.03125 C 36.202361 8.752188 36.31795 8.2286274 36.28125 7.8496094 C 36.2332 7.3536914 36.034898 7.0470681 35.548828 6.7207031 C 35.181768 6.4742431 34.458799 6.2101125 33.943359 6.1328125 C 33.427929 6.0555225 32.585743 6.0555225 32.070312 6.1328125 C 31.554883 6.2101075 30.836046 6.4719079 30.472656 6.7167969 C 30.094666 6.9715249 29.728931 7.4492263 29.619141 7.8320312 C 29.490121 8.2819263 29.299749 8.5019531 29.037109 8.5019531 C 28.822259 8.5019531 28.589031 8.35303 28.519531 8.171875 C 28.450011 7.990721 28.543422 7.5285822 28.726562 7.1445312 C 28.909703 6.7604792 29.418302 6.2085637 29.857422 5.9179688 C 30.296542 5.6273728 31.185571 5.2781741 31.832031 5.1425781 C 32.286601 5.0472351 32.645459 5 33.005859 5 z M 32.591797 16.34375 L 33.833984 16.34375 C 33.948714 16.34375 34.041016 16.436084 34.041016 16.550781 L 34.041016 17.792969 C 34.041016 17.907665 33.948674 18 33.833984 18 L 32.591797 18 C 32.477057 18 32.384766 17.907667 32.384766 17.792969 L 32.384766 16.550781 C 32.384766 16.436085 32.477097 16.34375 32.591797 16.34375 z " style="fill:#eff0f1" id="path45336"/>
  </g>
  <g transform="translate(65,-1)" id="inactive-center" style="enable-background:new">
    <rect style="opacity:0.003;fill:#000000;fill-opacity:1;stroke-width:1.02253" id="rect861-7" width="22" height="22" x="1" y="1"/>
    <path id="rect45068-9-1-2-9" style="fill:#bdc3c7" d="m 12.006716,6.000005 c -0.3604,0 -0.72092,0.0474 -1.17549,0.142743 -0.64646,0.135596 -1.5346,0.484576 -1.97372,0.775172 -0.43912,0.290595 -0.94828,0.842394 -1.13142,1.226446 -0.18314,0.384051 -0.27615,0.846342 -0.20663,1.027496 0.0695,0.181155 0.30234,0.329558 0.51719,0.329558 0.26264,0 0.45326,-0.219332 0.58228,-0.669227 0.10979,-0.382805 0.47482,-0.859707 0.85281,-1.114435 0.36339,-0.244889 1.08223,-0.50823 1.59766,-0.585525 0.51543,-0.07729 1.35921,-0.07729 1.87464,0 0.51544,0.0773 1.23747,0.342299 1.60453,0.588759 0.48607,0.326365 0.68507,0.633076 0.73312,1.128994 0.0367,0.379018 -0.0796,0.902902 -0.26243,1.181964 -0.18067,0.275737 -0.7693,0.725718 -1.30813,1.000001 -0.53883,0.274283 -1.18256,0.717558 -1.43065,0.985038 -0.24809,0.267478 -0.56234,0.929409 -0.69794,1.470683 -0.19398,0.774311 -0.19182,1.050195 0.0105,1.293975 0.20663,0.284675 0.54412,0.284675 0.78649,0.06146 0.13665,-0.136645 0.24828,-0.535132 0.24828,-0.885565 0,-0.350434 0.14638,-0.846319 0.32511,-1.101495 0.17874,-0.255174 0.77206,-0.690268 1.31865,-0.967247 0.54659,-0.276978 1.23515,-0.790565 1.53012,-1.141123 0.29498,-0.350562 0.59486,-0.949416 0.6664,-1.330774 0.0857,-0.456889 0.0159,-0.914058 -0.20461,-1.340477 -0.18406,-0.355928 -0.68837,-0.881035 -1.1205,-1.167004 C 14.710846,6.623454 13.828656,6.278339 13.182196,6.142743 12.727626,6.047393 12.367106,6 12.006706,6 Z m -0.41407,11.343711 c -0.1147,0 -0.20704,0.09234 -0.20704,0.207036 v 1.242216 c 0,0.114698 0.0923,0.207036 0.20704,0.207036 h 1.24222 c 0.11469,0 0.20703,-0.09234 0.20703,-0.207036 v -1.242216 c 0,-0.114697 -0.0923,-0.207036 -0.20703,-0.207036 z"/>
  </g>
  <g transform="translate(87,-1)" id="deactivated-center" style="enable-background:new">
    <rect style="opacity:0.003;fill:#000000;fill-opacity:1;stroke-width:1.02253" id="rect861-0" width="22" height="22" x="1" y="1"/>
    <path id="rect45068-9-1-2-2" style="fill:#bdc3c7" d="m 12.006716,6.000005 c -0.3604,0 -0.72092,0.0474 -1.17549,0.142743 -0.64646,0.135596 -1.5346,0.484576 -1.97372,0.775172 -0.43912,0.290595 -0.94828,0.842394 -1.13142,1.226446 -0.18314,0.384051 -0.27615,0.846342 -0.20663,1.027496 0.0695,0.181155 0.30234,0.329558 0.51719,0.329558 0.26264,0 0.45326,-0.219332 0.58228,-0.669227 0.10979,-0.382805 0.47482,-0.859707 0.85281,-1.114435 0.36339,-0.244889 1.08223,-0.50823 1.59766,-0.585525 0.51543,-0.07729 1.35921,-0.07729 1.87464,0 0.51544,0.0773 1.23747,0.342299 1.60453,0.588759 0.48607,0.326365 0.68507,0.633076 0.73312,1.128994 0.0367,0.379018 -0.0796,0.902902 -0.26243,1.181964 -0.18067,0.275737 -0.7693,0.725718 -1.30813,1.000001 -0.53883,0.274283 -1.18256,0.717558 -1.43065,0.985038 -0.24809,0.267478 -0.56234,0.929409 -0.69794,1.470683 -0.19398,0.774311 -0.19182,1.050195 0.0105,1.293975 0.20663,0.284675 0.54412,0.284675 0.78649,0.06146 0.13665,-0.136645 0.24828,-0.535132 0.24828,-0.885565 0,-0.350434 0.14638,-0.846319 0.32511,-1.101495 0.17874,-0.255174 0.77206,-0.690268 1.31865,-0.967247 0.54659,-0.276978 1.23515,-0.790565 1.53012,-1.141123 0.29498,-0.350562 0.59486,-0.949416 0.6664,-1.330774 0.0857,-0.456889 0.0159,-0.914058 -0.20461,-1.340477 -0.18406,-0.355928 -0.68837,-0.881035 -1.1205,-1.167004 C 14.710846,6.623454 13.828656,6.278339 13.182196,6.142743 12.727626,6.047393 12.367106,6 12.006706,6 Z m -0.41407,11.343711 c -0.1147,0 -0.20704,0.09234 -0.20704,0.207036 v 1.242216 c 0,0.114698 0.0923,0.207036 0.20704,0.207036 h 1.24222 c 0.11469,0 0.20703,-0.09234 0.20703,-0.207036 v -1.242216 c 0,-0.114697 -0.0923,-0.207036 -0.20703,-0.207036 z"/>
  </g>
  <g transform="translate(22)" style="enable-background:new" id="pressed-center">
    <rect y="0" x="22" height="22" width="22" id="rect861-6-6" style="opacity:0.003;fill:#000000;fill-opacity:1;stroke-width:1.02253"/>
    <path id="path45336-7" style="fill:#eff0f1" d="M 32.990234,2 A 9,9 0 0 0 24,11 a 9,9 0 0 0 9,9 9,9 0 0 0 9,-9 9,9 0 0 0 -9,-9 9,9 0 0 0 -0.0098,0 z m 0.01563,3 c 0.3604,0 0.721212,0.047228 1.175782,0.1425781 0.64646,0.135596 1.528807,0.4816102 1.960937,0.7675781 0.43213,0.2859691 0.937034,0.8100877 1.121094,1.1660157 0.22051,0.426419 0.290778,0.8829547 0.205078,1.3398437 -0.07154,0.381358 -0.372989,0.9814693 -0.667969,1.3320313 -0.29497,0.3505581 -0.982707,0.8636471 -1.529297,1.1406251 -0.54659,0.276979 -1.139619,0.711623 -1.318359,0.966797 -0.17873,0.255176 -0.326172,0.751128 -0.326172,1.101562 0,0.350433 -0.111397,0.750074 -0.248047,0.886719 -0.24237,0.223215 -0.578526,0.222175 -0.785156,-0.0625 -0.20232,-0.24378 -0.205699,-0.518658 -0.01172,-1.292969 0.1356,-0.541274 0.451129,-1.203225 0.699219,-1.470703 0.24809,-0.26748 0.890858,-0.712045 1.429688,-0.986328 0.538829,-0.274283 1.127923,-0.724263 1.308593,-1 0.18283,-0.279062 0.298419,-0.8026226 0.261719,-1.1816406 -0.04805,-0.495918 -0.246352,-0.8025413 -0.732422,-1.1289063 -0.36706,-0.24646 -1.090029,-0.5105906 -1.605469,-0.5878906 -0.51543,-0.07729 -1.357616,-0.07729 -1.873047,0 -0.515429,0.077295 -1.234266,0.3390954 -1.597656,0.5839844 -0.37799,0.254728 -0.743725,0.7324294 -0.853515,1.1152343 -0.12902,0.4498951 -0.319392,0.6699219 -0.582032,0.6699219 -0.21485,0 -0.448078,-0.1489231 -0.517578,-0.3300781 -0.06952,-0.181154 0.02389,-0.6432928 0.207031,-1.0273438 0.183141,-0.384052 0.69174,-0.9359675 1.13086,-1.2265624 0.43912,-0.290596 1.328149,-0.6397947 1.974609,-0.7753907 C 32.286601,5.0472351 32.645459,5 33.005859,5 Z m -0.414062,11.34375 h 1.242187 c 0.11473,0 0.207032,0.09233 0.207032,0.207031 v 1.242188 C 34.041016,17.907665 33.948674,18 33.833984,18 h -1.242187 c -0.11474,0 -0.207031,-0.09233 -0.207031,-0.207031 v -1.242188 c 0,-0.114696 0.09233,-0.207031 0.207031,-0.207031 z"/>
  </g>
</svg>