<?xml version="1.0" ?><svg xmlns:inkscape="http://www.inkscape.org/namespaces/inkscape" xmlns:sodipodi="http://sodipodi.sourceforge.net/DTD/sodipodi-0.dtd" xmlns="http://www.w3.org/2000/svg" xmlns:svg="http://www.w3.org/2000/svg" xmlns:rdf="http://www.w3.org/1999/02/22-rdf-syntax-ns#" xmlns:cc="http://creativecommons.org/ns#" xmlns:dc="http://purl.org/dc/elements/1.1/" id="svg4306" width="22" height="22" version="1.1" style="enable-background:new" sodipodi:docname="help.svg" inkscape:version="1.1.2 (0a00cf5339, 2022-02-04, custom)">
  <sodipodi:namedview id="namedview21" pagecolor="#505050" bordercolor="#eeeeee" borderopacity="1" inkscape:pageshadow="0" inkscape:pageopacity="0" inkscape:pagecheckerboard="0" showgrid="false" inkscape:zoom="8.9529268" inkscape:cx="57.355545" inkscape:cy="16.642602" inkscape:window-width="1896" inkscape:window-height="981" inkscape:window-x="12" inkscape:window-y="60" inkscape:window-maximized="1" inkscape:current-layer="svg4306"/>
  <metadata id="metadata28">
    <rdf:RDF>
      <cc:Work rdf:about="">
        <dc:format>image/svg+xml</dc:format>
        <dc:type rdf:resource="http://purl.org/dc/dcmitype/StillImage"/>
      </cc:Work>
    </rdf:RDF>
  </metadata>
  <defs id="defs26"/>
  
  <g id="active-center" transform="translate(-1,-1)" style="enable-background:new">
    <rect y="1" x="1" height="22" width="22" id="rect861" style="opacity:0.003;fill:#000000;fill-opacity:1;stroke-width:1.02253"/>
    <path d="m 12.006716,6.000005 c -0.3604,0 -0.72092,0.0474 -1.17549,0.142743 -0.64646,0.135596 -1.5346,0.484576 -1.97372,0.775172 -0.43912,0.290595 -0.94828,0.842394 -1.13142,1.226446 -0.18314,0.384051 -0.27615,0.846342 -0.20663,1.027496 0.0695,0.181155 0.30234,0.329558 0.51719,0.329558 0.26264,0 0.45326,-0.219332 0.58228,-0.669227 0.10979,-0.382805 0.47482,-0.859707 0.85281,-1.114435 0.36339,-0.244889 1.08223,-0.50823 1.59766,-0.585525 0.51543,-0.07729 1.35921,-0.07729 1.87464,0 0.51544,0.0773 1.23747,0.342299 1.60453,0.588759 0.48607,0.326365 0.68507,0.633076 0.73312,1.128994 0.0367,0.379018 -0.0796,0.902902 -0.26243,1.181964 -0.18067,0.275737 -0.7693,0.725718 -1.30813,1.000001 -0.53883,0.274283 -1.18256,0.717558 -1.43065,0.985038 -0.24809,0.267478 -0.56234,0.929409 -0.69794,1.470683 -0.19398,0.774311 -0.19182,1.050195 0.0105,1.293975 0.20663,0.284675 0.54412,0.284675 0.78649,0.06146 0.13665,-0.136645 0.24828,-0.535132 0.24828,-0.885565 0,-0.350434 0.14638,-0.846319 0.32511,-1.101495 0.17874,-0.255174 0.77206,-0.690268 1.31865,-0.967247 0.54659,-0.276978 1.23515,-0.790565 1.53012,-1.141123 0.29498,-0.350562 0.59486,-0.949416 0.6664,-1.330774 0.0857,-0.456889 0.0159,-0.914058 -0.20461,-1.340477 -0.18406,-0.355928 -0.68837,-0.881035 -1.1205,-1.167004 C 14.710846,6.623454 13.828656,6.278339 13.182196,6.142743 12.727626,6.047393 12.367106,6 12.006706,6 Z m -0.41407,11.343711 c -0.1147,0 -0.20704,0.09234 -0.20704,0.207036 v 1.242216 c 0,0.114698 0.0923,0.207036 0.20704,0.207036 h 1.24222 c 0.11469,0 0.20703,-0.09234 0.20703,-0.207036 v -1.242216 c 0,-0.114697 -0.0923,-0.207036 -0.20703,-0.207036 z" style="fill:#232629" id="rect45068-9-1-2"/>
  </g>
  <g id="hover-center" style="enable-background:new">
    <rect style="opacity:0.003;fill:#000000;fill-opacity:1;stroke-width:1.02253" id="rect861-6" width="22" height="22" x="22" y="0"/>
    <path d="M 32.990234,2 A 9,9 0 0 0 24,11 a 9,9 0 0 0 9,9 9,9 0 0 0 9,-9 9,9 0 0 0 -9,-9 9,9 0 0 0 -0.0098,0 z m 0.01563,3 c 0.3604,0 0.721212,0.047228 1.175782,0.1425781 0.64646,0.135596 1.528807,0.4816102 1.960937,0.7675781 0.43213,0.2859691 0.937034,0.8100877 1.121094,1.1660157 0.22051,0.426419 0.290778,0.8829547 0.205078,1.3398437 -0.07154,0.381358 -0.372989,0.9814693 -0.667969,1.3320313 -0.29497,0.3505581 -0.982707,0.8636471 -1.529297,1.1406251 -0.54659,0.276979 -1.139619,0.711623 -1.318359,0.966797 -0.17873,0.255176 -0.326172,0.751128 -0.326172,1.101562 0,0.350433 -0.111397,0.750074 -0.248047,0.886719 -0.24237,0.223215 -0.578526,0.222175 -0.785156,-0.0625 -0.20232,-0.24378 -0.205699,-0.518658 -0.01172,-1.292969 0.1356,-0.541274 0.451129,-1.203225 0.699219,-1.470703 0.24809,-0.26748 0.890858,-0.712045 1.429688,-0.986328 0.538829,-0.274283 1.127923,-0.724263 1.308593,-1 0.18283,-0.279062 0.298419,-0.8026226 0.261719,-1.1816406 -0.04805,-0.495918 -0.246352,-0.8025413 -0.732422,-1.1289063 -0.36706,-0.24646 -1.090029,-0.5105906 -1.605469,-0.5878906 -0.51543,-0.07729 -1.357616,-0.07729 -1.873047,0 -0.515429,0.077295 -1.234266,0.3390954 -1.597656,0.5839844 -0.37799,0.254728 -0.743725,0.7324294 -0.853515,1.1152343 -0.12902,0.4498951 -0.319392,0.6699219 -0.582032,0.6699219 -0.21485,0 -0.448078,-0.1489231 -0.517578,-0.3300781 -0.06952,-0.181154 0.02389,-0.6432928 0.207031,-1.0273438 0.183141,-0.384052 0.69174,-0.9359675 1.13086,-1.2265624 0.43912,-0.290596 1.328149,-0.6397947 1.974609,-0.7753907 C 32.286601,5.0472351 32.645459,5 33.005859,5 Z m -0.414062,11.34375 h 1.242187 c 0.11473,0 0.207032,0.09233 0.207032,0.207031 v 1.242188 C 34.041016,17.907665 33.948674,18 33.833984,18 h -1.242187 c -0.11474,0 -0.207031,-0.09233 -0.207031,-0.207031 v -1.242188 c 0,-0.114696 0.09233,-0.207031 0.207031,-0.207031 z" style="fill:#232629" id="path45336"/>
  </g>
  <g transform="translate(65,-1)" id="inactive-center" style="enable-background:new">
    <rect style="opacity:0.003;fill:#000000;fill-opacity:1;stroke-width:1.02253" id="rect861-7" width="22" height="22" x="1" y="1"/>
    <path id="rect45068-9-1-2-9" style="fill:#bdc3c7" d="m 12.006716,6.000005 c -0.3604,0 -0.72092,0.0474 -1.17549,0.142743 -0.64646,0.135596 -1.5346,0.484576 -1.97372,0.775172 -0.43912,0.290595 -0.94828,0.842394 -1.13142,1.226446 -0.18314,0.384051 -0.27615,0.846342 -0.20663,1.027496 0.0695,0.181155 0.30234,0.329558 0.51719,0.329558 0.26264,0 0.45326,-0.219332 0.58228,-0.669227 0.10979,-0.382805 0.47482,-0.859707 0.85281,-1.114435 0.36339,-0.244889 1.08223,-0.50823 1.59766,-0.585525 0.51543,-0.07729 1.35921,-0.07729 1.87464,0 0.51544,0.0773 1.23747,0.342299 1.60453,0.588759 0.48607,0.326365 0.68507,0.633076 0.73312,1.128994 0.0367,0.379018 -0.0796,0.902902 -0.26243,1.181964 -0.18067,0.275737 -0.7693,0.725718 -1.30813,1.000001 -0.53883,0.274283 -1.18256,0.717558 -1.43065,0.985038 -0.24809,0.267478 -0.56234,0.929409 -0.69794,1.470683 -0.19398,0.774311 -0.19182,1.050195 0.0105,1.293975 0.20663,0.284675 0.54412,0.284675 0.78649,0.06146 0.13665,-0.136645 0.24828,-0.535132 0.24828,-0.885565 0,-0.350434 0.14638,-0.846319 0.32511,-1.101495 0.17874,-0.255174 0.77206,-0.690268 1.31865,-0.967247 0.54659,-0.276978 1.23515,-0.790565 1.53012,-1.141123 0.29498,-0.350562 0.59486,-0.949416 0.6664,-1.330774 0.0857,-0.456889 0.0159,-0.914058 -0.20461,-1.340477 -0.18406,-0.355928 -0.68837,-0.881035 -1.1205,-1.167004 C 14.710846,6.623454 13.828656,6.278339 13.182196,6.142743 12.727626,6.047393 12.367106,6 12.006706,6 Z m -0.41407,11.343711 c -0.1147,0 -0.20704,0.09234 -0.20704,0.207036 v 1.242216 c 0,0.114698 0.0923,0.207036 0.20704,0.207036 h 1.24222 c 0.11469,0 0.20703,-0.09234 0.20703,-0.207036 v -1.242216 c 0,-0.114697 -0.0923,-0.207036 -0.20703,-0.207036 z"/>
  </g>
  <g transform="translate(87,-1)" id="deactivated-center" style="enable-background:new">
    <rect style="opacity:0.003;fill:#000000;fill-opacity:1;stroke-width:1.02253" id="rect861-0" width="22" height="22" x="1" y="1"/>
    <path id="rect45068-9-1-2-2" style="fill:#7f8c8d" d="m 12.006716,6.000005 c -0.3604,0 -0.72092,0.0474 -1.17549,0.142743 -0.64646,0.135596 -1.5346,0.484576 -1.97372,0.775172 -0.43912,0.290595 -0.94828,0.842394 -1.13142,1.226446 -0.18314,0.384051 -0.27615,0.846342 -0.20663,1.027496 0.0695,0.181155 0.30234,0.329558 0.51719,0.329558 0.26264,0 0.45326,-0.219332 0.58228,-0.669227 0.10979,-0.382805 0.47482,-0.859707 0.85281,-1.114435 0.36339,-0.244889 1.08223,-0.50823 1.59766,-0.585525 0.51543,-0.07729 1.35921,-0.07729 1.87464,0 0.51544,0.0773 1.23747,0.342299 1.60453,0.588759 0.48607,0.326365 0.68507,0.633076 0.73312,1.128994 0.0367,0.379018 -0.0796,0.902902 -0.26243,1.181964 -0.18067,0.275737 -0.7693,0.725718 -1.30813,1.000001 -0.53883,0.274283 -1.18256,0.717558 -1.43065,0.985038 -0.24809,0.267478 -0.56234,0.929409 -0.69794,1.470683 -0.19398,0.774311 -0.19182,1.050195 0.0105,1.293975 0.20663,0.284675 0.54412,0.284675 0.78649,0.06146 0.13665,-0.136645 0.24828,-0.535132 0.24828,-0.885565 0,-0.350434 0.14638,-0.846319 0.32511,-1.101495 0.17874,-0.255174 0.77206,-0.690268 1.31865,-0.967247 0.54659,-0.276978 1.23515,-0.790565 1.53012,-1.141123 0.29498,-0.350562 0.59486,-0.949416 0.6664,-1.330774 0.0857,-0.456889 0.0159,-0.914058 -0.20461,-1.340477 -0.18406,-0.355928 -0.68837,-0.881035 -1.1205,-1.167004 C 14.710846,6.623454 13.828656,6.278339 13.182196,6.142743 12.727626,6.047393 12.367106,6 12.006706,6 Z m -0.41407,11.343711 c -0.1147,0 -0.20704,0.09234 -0.20704,0.207036 v 1.242216 c 0,0.114698 0.0923,0.207036 0.20704,0.207036 h 1.24222 c 0.11469,0 0.20703,-0.09234 0.20703,-0.207036 v -1.242216 c 0,-0.114697 -0.0923,-0.207036 -0.20703,-0.207036 z"/>
  </g>
  <g transform="translate(22)" style="enable-background:new" id="pressed-center">
    <rect y="0" x="22" height="22" width="22" id="rect861-6-6" style="opacity:0.003;fill:#000000;fill-opacity:1;stroke-width:1.02253"/>
    <path id="path45336-7" style="fill:#232629" d="M 32.990234,2 A 9,9 0 0 0 24,11 a 9,9 0 0 0 9,9 9,9 0 0 0 9,-9 9,9 0 0 0 -9,-9 9,9 0 0 0 -0.0098,0 z m 0.01563,3 c 0.3604,0 0.721212,0.047228 1.175782,0.1425781 0.64646,0.135596 1.528807,0.4816102 1.960937,0.7675781 0.43213,0.2859691 0.937034,0.8100877 1.121094,1.1660157 0.22051,0.426419 0.290778,0.8829547 0.205078,1.3398437 -0.07154,0.381358 -0.372989,0.9814693 -0.667969,1.3320313 -0.29497,0.3505581 -0.982707,0.8636471 -1.529297,1.1406251 -0.54659,0.276979 -1.139619,0.711623 -1.318359,0.966797 -0.17873,0.255176 -0.326172,0.751128 -0.326172,1.101562 0,0.350433 -0.111397,0.750074 -0.248047,0.886719 -0.24237,0.223215 -0.578526,0.222175 -0.785156,-0.0625 -0.20232,-0.24378 -0.205699,-0.518658 -0.01172,-1.292969 0.1356,-0.541274 0.451129,-1.203225 0.699219,-1.470703 0.24809,-0.26748 0.890858,-0.712045 1.429688,-0.986328 0.538829,-0.274283 1.127923,-0.724263 1.308593,-1 0.18283,-0.279062 0.298419,-0.8026226 0.261719,-1.1816406 -0.04805,-0.495918 -0.246352,-0.8025413 -0.732422,-1.1289063 -0.36706,-0.24646 -1.090029,-0.5105906 -1.605469,-0.5878906 -0.51543,-0.07729 -1.357616,-0.07729 -1.873047,0 -0.515429,0.077295 -1.234266,0.3390954 -1.597656,0.5839844 -0.37799,0.254728 -0.743725,0.7324294 -0.853515,1.1152343 -0.12902,0.4498951 -0.319392,0.6699219 -0.582032,0.6699219 -0.21485,0 -0.448078,-0.1489231 -0.517578,-0.3300781 -0.06952,-0.181154 0.02389,-0.6432928 0.207031,-1.0273438 0.183141,-0.384052 0.69174,-0.9359675 1.13086,-1.2265624 0.43912,-0.290596 1.328149,-0.6397947 1.974609,-0.7753907 C 32.286601,5.0472351 32.645459,5 33.005859,5 Z m -0.414062,11.34375 h 1.242187 c 0.11473,0 0.207032,0.09233 0.207032,0.207031 v 1.242188 C 34.041016,17.907665 33.948674,18 33.833984,18 h -1.242187 c -0.11474,0 -0.207031,-0.09233 -0.207031,-0.207031 v -1.242188 c 0,-0.114696 0.09233,-0.207031 0.207031,-0.207031 z"/>
  </g>
</svg>