<?xml version="1.0" ?><svg xmlns:inkscape="http://www.inkscape.org/namespaces/inkscape" xmlns:sodipodi="http://sodipodi.sourceforge.net/DTD/sodipodi-0.dtd" xmlns="http://www.w3.org/2000/svg" xmlns:svg="http://www.w3.org/2000/svg" xmlns:rdf="http://www.w3.org/1999/02/22-rdf-syntax-ns#" xmlns:cc="http://creativecommons.org/ns#" xmlns:dc="http://purl.org/dc/elements/1.1/" inkscape:version="1.1.1 (3bf5ae0d25, 2021-09-20, custom)" sodipodi:docname="alldesktops.svg" style="enable-background:new" version="1.1" height="22" width="22" id="svg4306">
  <metadata id="metadata28">
    <rdf:RDF>
      <cc:Work rdf:about="">
        <dc:format>image/svg+xml</dc:format>
        <dc:type rdf:resource="http://purl.org/dc/dcmitype/StillImage"/>
        <dc:title/>
      </cc:Work>
    </rdf:RDF>
  </metadata>
  <defs id="defs26"/>
  <sodipodi:namedview inkscape:current-layer="active-center" inkscape:window-maximized="1" inkscape:window-y="60" inkscape:window-x="12" inkscape:cy="15.733125" inkscape:cx="31.908192" inkscape:zoom="5.6568545" showgrid="true" id="namedview24" inkscape:window-height="1003" inkscape:window-width="1896" inkscape:pageshadow="2" inkscape:pageopacity="0" guidetolerance="10" gridtolerance="10" objecttolerance="10" borderopacity="1" bordercolor="#666666" pagecolor="#ffffff" inkscape:document-rotation="0" inkscape:snap-intersection-paths="true" inkscape:pagecheckerboard="0">
    <inkscape:grid id="grid853" type="xygrid"/>
  </sodipodi:namedview>
  
  <g id="active-center" style="enable-background:new">
    <rect transform="scale(-1)" id="rect4266" width="22" height="22" x="-22" y="-22" style="opacity:0.00100002;fill:#000000;fill-opacity:1;fill-rule:nonzero;stroke:none;stroke-width:2;stroke-linecap:round;stroke-linejoin:round;stroke-miterlimit:4;stroke-dasharray:none;stroke-opacity:1"/>
    <circle transform="scale(-1)" r="9" cy="-11" cx="-11" id="path867-5-6-5" style="opacity:0.003;fill:#ffffff;fill-opacity:1;stroke-width:1.001;enable-background:new"/>
    <path d="M 14,5 8.854,10.146 7.7151012,9 7.0071012,9.708 9.293,12 6,15.292672 6.708,16.000672 10,12.707 12.292,15.002383 13,14.294383 11.854,13.146 17,8 Z" id="path3" sodipodi:nodetypes="ccccccccccccc" style="fill:#eff0f1"/>
  </g>
  <g id="pressed-center" style="enable-background:new">
    <rect style="opacity:0.00100002;fill:#000000;fill-opacity:1;fill-rule:nonzero;stroke:none;stroke-width:2;stroke-linecap:round;stroke-linejoin:round;stroke-miterlimit:4;stroke-dasharray:none;stroke-opacity:1" y="-22" x="-66" height="22" width="22" id="rect4266-6" transform="scale(-1)"/>
    <path d="M 54.990234 2 C 50.023486 2.0053895 45.999997 6.0332486 46 11 C 46 15.970563 50.029437 20 55 20 C 59.970563 20 64 15.970563 64 11 C 64 6.0294373 59.970563 2 55 2 L 54.990234 2 z M 55 10 A 1 1 0 0 1 56 11 A 1 1 0 0 1 55 12 A 1 1 0 0 1 54 11 A 1 1 0 0 1 55 10 z " style="fill:#eff0f1" id="path1165"/>
  </g>
  <g id="inactive-center" style="enable-background:new" transform="translate(66)">
    <rect style="opacity:0.00100002;fill:#000000;fill-opacity:1;fill-rule:nonzero;stroke:none;stroke-width:2;stroke-linecap:round;stroke-linejoin:round;stroke-miterlimit:4;stroke-dasharray:none;stroke-opacity:1" y="-22" x="-22" height="22" width="22" id="rect4266-8" transform="scale(-1)"/>
    <circle style="opacity:0.003;fill:#ffffff;fill-opacity:1;stroke-width:1.001;enable-background:new" id="path867-5-6-5-7" cx="-11" cy="-11" r="9" transform="scale(-1)"/>
    <path style="fill:#7f8c8d" sodipodi:nodetypes="ccccccccccccc" id="path3-9" d="M 14,5 8.854,10.146 7.7151012,9 7.0071012,9.708 9.293,12 6,15.292672 6.708,16.000672 10,12.707 12.292,15.002383 13,14.294383 11.854,13.146 17,8 Z"/>
  </g>
  <g id="deactivated-center" style="enable-background:new" transform="translate(88)">
    <rect style="opacity:0.00100002;fill:#000000;fill-opacity:1;fill-rule:nonzero;stroke:none;stroke-width:2;stroke-linecap:round;stroke-linejoin:round;stroke-miterlimit:4;stroke-dasharray:none;stroke-opacity:1" y="-22" x="-22" height="22" width="22" id="rect4266-0" transform="scale(-1)"/>
    <circle style="opacity:0.003;fill:#ffffff;fill-opacity:1;stroke-width:1.001;enable-background:new" id="path867-5-6-5-2" cx="-11" cy="-11" r="9" transform="scale(-1)"/>
    <path style="fill:#bdc3c7" sodipodi:nodetypes="ccccccccccccc" id="path3-3" d="M 14,5 8.854,10.146 7.7151012,9 7.0071012,9.708 9.293,12 6,15.292672 6.708,16.000672 10,12.707 12.292,15.002383 13,14.294383 11.854,13.146 17,8 Z"/>
  </g>
  <g transform="translate(-22)" style="enable-background:new" id="hover-center">
    <rect transform="scale(-1)" id="rect4266-6-6" width="22" height="22" x="-66" y="-22" style="opacity:0.00100002;fill:#000000;fill-opacity:1;fill-rule:nonzero;stroke:none;stroke-width:2;stroke-linecap:round;stroke-linejoin:round;stroke-miterlimit:4;stroke-dasharray:none;stroke-opacity:1"/>
    <path id="path1165-7" style="fill:#eff0f1" d="M 54.990234,2 A 9,9 0 0 0 46,11 9,9 0 0 0 55,20 9,9 0 0 0 64,11 9,9 0 0 0 55,2 9,9 0 0 0 54.9902,2 Z M 58,5 61,8 55.853516,13.146484 57,14.294922 56.292969,15.001953 54,12.707031 50.707031,16 50,15.292969 53.292969,12 51.007812,9.7070312 51.714844,9 l 1.138672,1.146484 z"/>
  </g>
</svg>